
<svg width="1000" height="1000" viewBox="0 0 1000 1000" fill="none" xmlns="http://www.w3.org/2000/svg">
<g clip-path="url(#clip0_3825_51654)" filter="url(#filter0_i_3825_51654)">
<rect width="1000" height="1000" fill="url(#paint0_linear_3825_51654)"/>
<path d="M476.403 -3.99243C426.154 150.427 215.943 274.39 183.685 131.035C155.884 7.49044 407.002 -65.1045 378.097 185.849C354.973 386.612 17.0638 515.934 -149 555.499" stroke="white" stroke-opacity="0.28"/>
<path d="M1133.45 500.701C975.588 538.785 835.648 738.716 976.058 782.028C1097.07 819.356 1188.98 574.646 936.534 583.941C734.581 591.377 579.364 918.202 527 1080.68" stroke="white" stroke-opacity="0.28"/>
<path fill-rule="evenodd" clip-rule="evenodd" d="M855.004 500.95L813.18 501.148L779.768 550.341C771.931 546.257 752.649 512.085 743.385 501.147L701.719 501.075C705.5 508.084 709.773 510.564 714.371 515.212L715.049 613.829L743.337 613.95L743.891 549.834C749.972 557.044 755.032 565.286 760.628 573.278C765.875 580.772 771.664 591.223 777.43 595.931C786.954 592.372 802.57 557.231 812.682 550.208L813.668 613.951L841.725 613.635L842.488 515.657L855.004 500.95Z" fill="white"/>
<path fill-rule="evenodd" clip-rule="evenodd" d="M512.444 480.143C523.934 477.194 725.533 478.98 755.299 478.98C822.923 478.98 817.692 472.777 820.383 494.506L841.324 494.102C845.988 444.75 813.547 455.586 772.323 455.592L556.119 455.582C515.104 455.582 484.742 444.969 488.913 494.295L509.792 494.385L512.444 480.143Z" fill="white"/>
<path fill-rule="evenodd" clip-rule="evenodd" d="M557.823 658.991H774.028C812.08 658.991 848.014 668.769 841.16 620.488L820.582 620.233L818.016 634.63C807.097 637.095 521.331 636.82 511.67 634.578L509.638 620.263L489.03 620.79C483.3 669.781 518.278 658.991 557.823 658.991Z" fill="white"/>
<path fill-rule="evenodd" clip-rule="evenodd" d="M394.589 554.397L394.014 525.47C410.372 524.87 439.93 519.84 440.235 539.418C440.554 559.93 412.017 554.33 394.589 554.397ZM441.826 573.555C454.34 566.84 464.091 563.65 468.112 548.471C472.41 532.243 464.251 518.678 455.948 511.822C443.228 501.316 434.431 500.967 414.819 501.055C398.414 501.129 381.523 500.581 365.095 501.169L365.261 613.94L394.044 613.079L394.119 576.799L411.41 577.196C431.775 611.863 436.33 615.06 469.016 613.678L469.001 587.538C454.321 586.57 445.133 586.274 441.826 573.555Z" fill="white"/>
<path fill-rule="evenodd" clip-rule="evenodd" d="M584.358 501.232C581.78 512.995 583.556 550.51 583.55 565.019C583.542 588.875 586.117 599.833 602.442 609.109C627.575 623.39 681.966 618.469 682.021 576.968C682.055 551.645 682.882 526.251 681.239 500.977L653.465 500.94L653.142 571.93C652.733 600.739 620.756 589.947 617.366 587.133C611.661 582.396 612.773 572.686 612.772 565.019L611.77 500.931L584.358 501.232Z" fill="white"/>
<path fill-rule="evenodd" clip-rule="evenodd" d="M175.296 526.171C191.253 522.793 220.164 521.453 218.834 540.95C217.711 557.403 191.561 556.646 175.546 553.711L175.296 526.171ZM175.603 578.473C197.687 578.584 214.811 580.958 231.062 570.33C241.886 563.252 253.369 546.66 245.434 526.57C232.749 494.451 185.971 499.603 146.361 501.129L146.772 613.962L175.404 613.381L175.603 578.473Z" fill="white"/>
<path fill-rule="evenodd" clip-rule="evenodd" d="M281.189 579.126C282.703 572.055 284.519 568.155 286.901 561.31L291.522 548.849C293.287 545.917 292.554 547.371 294.378 545.59L305.687 578.823L281.189 579.126ZM272.835 501.124C276.642 517.018 280.355 513.196 273.821 529.368C266.256 548.092 244.797 601.193 241.391 614.599L268.011 614.229L273.514 599.396L313.807 599.867L319.483 614.499L345.352 614.65C343.063 602.745 304.567 505.328 301.806 500.947L272.835 501.124Z" fill="white"/>
<path fill-rule="evenodd" clip-rule="evenodd" d="M517.683 525.96L566.022 525.403L565.247 501.021L488.574 501.399L488.883 613.967L517.639 613.231L517.792 572.449L549.854 572.191L550.058 548.14L517.688 547.077L517.683 525.96Z" fill="white"/>
<path fill-rule="evenodd" clip-rule="evenodd" d="M739.047 361.878C758.43 354.132 766.72 384.709 749.723 390.507C739.21 394.094 731.375 388.46 729.076 381.222C725.674 370.51 731.552 364.873 739.047 361.878ZM709.75 342.883C697.934 347.646 700.772 357.508 700.759 372.111C700.749 382.663 698.627 401.775 704.866 407.346C710.275 412.175 769.163 412.801 778.788 409.377C789.271 405.648 786.741 390.158 786.74 378.94C786.738 367.714 789.287 349.458 781.52 344.103C776.439 340.6 716.276 340.253 709.75 342.883Z" fill="white"/>
<path fill-rule="evenodd" clip-rule="evenodd" d="M340.339 429.13L359.576 429.166C362.82 416.42 353.809 382.823 369.2 381.071C385.191 379.249 379.399 416.814 379.376 428.684L399.715 429.076C399.862 380.278 405.17 356.42 360.552 370.313L360.454 340L340.598 340.095L340.339 429.13Z" fill="white"/>
<path fill-rule="evenodd" clip-rule="evenodd" d="M413.044 428.732L433.562 429.143C433.53 420.354 432.226 411.187 435.707 405.128L451.807 429.155L474.664 429.009L450.898 392.756C454.343 388.647 457.032 384.795 460.928 380.668C466.526 374.736 468.268 374.126 472.008 366.421L448.471 366.583C445.33 373.05 438.717 382.039 433.964 387.402L433.396 340.102L413.388 340.013L413.044 428.732Z" fill="white"/>
<path fill-rule="evenodd" clip-rule="evenodd" d="M684.59 450.67L803.033 450.581L802.816 425.109L684.579 425.826L684.59 450.67Z" fill="white"/>
<path fill-rule="evenodd" clip-rule="evenodd" d="M564.462 371.848C560.195 367.087 566.675 365.884 544.428 367.063L544.584 428.591L564.885 429.134C564.918 417.663 564.475 405.389 564.899 394.239C565.34 382.605 574.491 375.742 582.165 385.381C587.259 397.155 581.838 415.311 584.598 428.779L603.012 429.234C605.696 420.643 605.115 385.303 601.71 377.582C595.585 363.698 575.254 361.149 564.462 371.848Z" fill="white"/>
<path fill-rule="evenodd" clip-rule="evenodd" d="M239.079 380.655L244.306 378.723L250.283 380.001C261.188 393.315 261.446 415.139 240.012 415.139C232.559 413.136 230.41 390.574 239.079 380.655ZM237.289 365.603C197.661 374.434 207.095 438.526 252.283 429.373C291.942 421.34 282.556 355.514 237.289 365.603Z" fill="white"/>
<path fill-rule="evenodd" clip-rule="evenodd" d="M495.633 390.1C496.049 375.787 515.728 373.596 515.101 390.352L495.633 390.1ZM531.225 426.672L528.958 413.213C513.02 415.571 499.807 419.593 494.978 404.407L533.636 403.852C543.552 363.433 495.064 352.664 479.715 380.845C469.841 398.974 471.921 441.035 531.225 426.672Z" fill="white"/>
<path fill-rule="evenodd" clip-rule="evenodd" d="M144.001 359.976L166.328 360.261L166.567 428.645L186.685 429.078L186.672 360.293L209.007 360.166L209.025 343.542L144.543 343.588L144.001 359.976Z" fill="white"/>
<path fill-rule="evenodd" clip-rule="evenodd" d="M621.47 355.406L619.861 365.965L611.748 368.695L611.787 378.939L620.258 382.353C620.82 414.379 615.144 434.955 654.122 428.692L653.704 414.267L641.605 413.271L640.343 380.719L654.972 380.675L655.064 366.693L640.545 366.091L640.264 351.089L621.47 355.406Z" fill="white"/>
<path fill-rule="evenodd" clip-rule="evenodd" d="M310.74 413.082C303.23 418.492 294.256 414.551 287.298 411.969L283.246 426.211C300.554 431.039 323.592 432.514 329.643 416.474C333.039 407.472 328.555 399.159 323.504 395.386C319.924 392.711 316.617 391.65 313.274 390.359C305.544 387.37 305.731 388.446 304.032 381.643C312.197 376.985 315.472 379.914 324.816 382.419L328.302 368.746C289.511 355.119 273.183 386.671 293.613 399.713C301.86 404.977 310.295 403.403 310.74 413.082Z" fill="white"/>
<path fill-rule="evenodd" clip-rule="evenodd" d="M711.037 422.25C722.176 422.25 778.71 424.658 786.146 419.911L786.506 414.092C773.189 413.196 707.875 410.747 703.07 413.769C694.968 418.864 704.189 422.25 711.037 422.25Z" fill="white"/>
</g>
<defs>
<filter id="filter0_i_3825_51654" x="0" y="-115.115" width="1000" height="1115.11" filterUnits="userSpaceOnUse" color-interpolation-filters="sRGB">
<feFlood flood-opacity="0" result="BackgroundImageFix"/>
<feBlend mode="normal" in="SourceGraphic" in2="BackgroundImageFix" result="shape"/>
<feColorMatrix in="SourceAlpha" type="matrix" values="0 0 0 0 0 0 0 0 0 0 0 0 0 0 0 0 0 0 127 0" result="hardAlpha"/>
<feOffset dy="-115.115"/>
<feGaussianBlur stdDeviation="225.932"/>
<feComposite in2="hardAlpha" operator="arithmetic" k2="-1" k3="1"/>
<feColorMatrix type="matrix" values="0 0 0 0 0.47451 0 0 0 0 0.12549 0 0 0 0 0.211765 0 0 0 1 0"/>
<feBlend mode="normal" in2="shape" result="effect1_innerShadow_3825_51654"/>
</filter>
<linearGradient id="paint0_linear_3825_51654" x1="500" y1="178.571" x2="500" y2="1125" gradientUnits="userSpaceOnUse">
<stop stop-color="#EB2859"/>
<stop offset="1" stop-color="#792036"/>
</linearGradient>
<clipPath id="clip0_3825_51654">
<rect width="1000" height="1000" fill="white"/>
</clipPath>
</defs>
</svg>
